<svg width="56" height="61" viewBox="0 0 56 61" fill="none" xmlns="http://www.w3.org/2000/svg">
<rect x="4.5" y="1.5" width="46" height="42" rx="4.5" fill="#FFEDD6" stroke="#753851" stroke-width="3"/>
<rect x="11" y="9" width="33" height="27" rx="2" fill="#77B8DE" stroke="#753851" stroke-width="2"/>
<path d="M34 20.1516C34 24.756 29.2857 28 29.2857 28C27.3651 26.7791 23 24.756 23 20.1516C23 16.4889 28.7619 15.4425 28.7619 20.1516C28.7619 15.4425 34 16.4889 34 20.1516Z" fill="#EDE66E" stroke="#753851"/>
<rect x="36.5" y="38.5" width="6" height="2" rx="0.5" stroke="#753851"/>
<rect x="1.5" y="43.5" width="53" height="16" rx="4.5" fill="#FFEDD6" stroke="#753851" stroke-width="3"/>
<rect x="44.4216" y="49.5" width="4.4902" height="4" rx="0.5" stroke="#753851"/>
<rect x="36.7354" y="49.5" width="4.4902" height="4" rx="0.5" stroke="#753851"/>
<rect x="10.3823" y="50.5" width="22.0588" height="2" rx="0.5" stroke="#753851"/>
</svg>
